<svg width="20" height="20" viewBox="0 0 20 20" fill="none" xmlns="http://www.w3.org/2000/svg">
<path d="M12.5003 18.3333V12.5C12.5003 11.7234 12.5003 11.3351 12.3735 11.0289C12.2043 10.6205 11.8798 10.296 11.4715 10.1269C11.1652 10 10.7769 10 10.0003 10C9.22376 10 8.83547 10 8.52919 10.1269C8.12081 10.296 7.79635 10.6205 7.62719 11.0289C7.50033 11.3351 7.50033 11.7234 7.50033 12.5V18.3333M5.83569 3.33171L4.16902 4.66504C3.25021 5.40009 2.7908 5.76762 2.46011 6.22381C2.16716 6.62794 1.9492 7.08142 1.81663 7.56264C1.66699 8.10584 1.66699 8.69417 1.66699 9.87083V11.6667C1.66699 14.0002 1.66699 15.167 2.12113 16.0583C2.5206 16.8423 3.15802 17.4797 3.94203 17.8792C4.83333 18.3333 6.00011 18.3333 8.33366 18.3333H11.667C14.0005 18.3333 15.1673 18.3333 16.0586 17.8792C16.8426 17.4797 17.48 16.8423 17.8795 16.0583C18.3337 15.167 18.3337 14.0002 18.3337 11.6667V9.87083C18.3337 8.69417 18.3337 8.10584 18.184 7.56264C18.0514 7.08142 17.8335 6.62794 17.5405 6.22381C17.2099 5.76762 16.7504 5.40009 15.8316 4.66504L14.165 3.33171C12.6786 2.14265 11.9355 1.54812 11.1113 1.32011C10.3843 1.11899 9.61635 1.11899 8.88936 1.32011C8.06518 1.54812 7.32202 2.14265 5.83569 3.33171Z" stroke="#6B7280" stroke-width="1.25" stroke-linecap="round" stroke-linejoin="round"/>
</svg>
